<svg xmlns="http://www.w3.org/2000/svg" width="83.14" height="50" viewBox="0 0 83.14 50"><defs><style>.cls-1{fill:#dadada;}</style></defs><title>restrant</title><g id="レイヤー_2" data-name="レイヤー 2"><g id="レイヤー_1-2" data-name="レイヤー 1"><path d="M.16,26.72l5-.74a4.13,4.13,0,0,1,2.89.5A3.2,3.2,0,0,1,9.5,28.89a3.68,3.68,0,0,1-.41,2.43,5.06,5.06,0,0,1-2,1.85,2.81,2.81,0,0,1,2.71,2.12l1.62,4.4-3.56.52L6.7,36.33A3.56,3.56,0,0,0,6,34.93,1.15,1.15,0,0,0,5,34.62l-.3,0,.86,5.89L2.27,41ZM3.82,29l.46,3.07L5,32a1.45,1.45,0,0,0,1.09-.63,1.75,1.75,0,0,0,.23-1.23,1.47,1.47,0,0,0-.51-1,1.41,1.41,0,0,0-1.11-.21Z"/><path d="M19.69,37.66a6.62,6.62,0,0,1-3.1,1.48,4.12,4.12,0,0,1-3.38-.89A5,5,0,0,1,11.48,35a5.4,5.4,0,0,1,.65-3.64A3.81,3.81,0,0,1,15,29.46a3.43,3.43,0,0,1,2.92.81,5,5,0,0,1,1.51,3.11l.11.77-4.87.72a2.66,2.66,0,0,0,.92,1.29,1.81,1.81,0,0,0,1.37.28A2.3,2.3,0,0,0,18.05,36a8.44,8.44,0,0,0,1.21-1.21Zm-3-4.77-.05-.31a1.8,1.8,0,0,0-.48-1,1,1,0,0,0-.88-.33,1,1,0,0,0-.81.59,2.75,2.75,0,0,0-.16,1.43Z"/><path d="M20.85,34.8a4.28,4.28,0,0,0,2.7.86,1.16,1.16,0,0,0,.67-.33.68.68,0,0,0,.2-.62.57.57,0,0,0-.3-.43,3.9,3.9,0,0,0-.93-.31,4.08,4.08,0,0,1-2.16-1,2.62,2.62,0,0,1-.65-1.34,2.51,2.51,0,0,1,.73-2.24,4.1,4.1,0,0,1,2.41-1.16,5.91,5.91,0,0,1,2.65.23l.4,2.75a3.11,3.11,0,0,0-2.16-.63,1.15,1.15,0,0,0-.63.24.51.51,0,0,0-.15.48c0,.27.39.46,1,.58q2.68.49,3,2.4a3,3,0,0,1-.72,2.42A4,4,0,0,1,24.36,38a6.55,6.55,0,0,1-3.1-.37Z"/><path d="M28.22,24.87l2.51-.37.41,2.8,1.5-.22L33,29.34l-1.37.2.56,3.8c.08.59.36.84.81.78a1.24,1.24,0,0,0,.65-.37L34,36.26a5,5,0,0,1-1.66.56,2.77,2.77,0,0,1-2.16-.39,3,3,0,0,1-1-2L28.55,30l-1.11.16-.33-2.27,1.28-.19Z"/><path d="M34.23,29.14a5.56,5.56,0,0,1,2.27-.95,3.27,3.27,0,0,1,1.48.09,2.47,2.47,0,0,1,1.18.81,3.25,3.25,0,0,1,.67,1.63l.36,2.5A5.84,5.84,0,0,0,41,35.33l-2.43.35A3.21,3.21,0,0,1,38.2,35a2.84,2.84,0,0,1-.66.77,1.69,1.69,0,0,1-.79.34,2,2,0,0,1-1.62-.47,2.36,2.36,0,0,1-.92-1.58q-.33-2.24,3.36-3.29a.91.91,0,0,0-.5-.55,1.82,1.82,0,0,0-.93-.07,2.79,2.79,0,0,0-1.62,1ZM37.76,32c-1,.24-1.46.71-1.36,1.39a1,1,0,0,0,.33.62.69.69,0,0,0,.58.19.63.63,0,0,0,.51-.41A1.59,1.59,0,0,0,37.9,33Z"/><path d="M41.12,27.69l2.42-.36.68,4.61a1.4,1.4,0,0,0,.21.63.38.38,0,0,0,.38.16.57.57,0,0,0,.41-.31,1.12,1.12,0,0,0,.09-.64l-.68-4.61,2.45-.36,1.1,7.45-2.09.31-.34-.71a2.67,2.67,0,0,1-.66.8,1.86,1.86,0,0,1-.84.36,1.77,1.77,0,0,1-1.54-.52,2.83,2.83,0,0,1-.83-1.72Z"/><path d="M52,25a2.85,2.85,0,0,1,.55-1.24,1.42,1.42,0,0,1,.92-.52,1.55,1.55,0,0,1,.8.11l.46,3.08a2,2,0,0,0-.93-.12,1.25,1.25,0,0,0-.94.66,2.07,2.07,0,0,0-.2,1.35l.75,5.14L50.23,34l-1.44-9.78,2.74-.4Z"/><path d="M55.56,24.24a6.89,6.89,0,0,1,2.83-1.18,4,4,0,0,1,1.84.11,3.13,3.13,0,0,1,1.46,1,4,4,0,0,1,.84,2L63,29.32a7.07,7.07,0,0,0,.94,2.62l-3,.44a4.11,4.11,0,0,1-.41-.84,3.42,3.42,0,0,1-.81,1,2.09,2.09,0,0,1-1,.43,2.62,2.62,0,0,1-2-.58,3,3,0,0,1-1.14-2q-.4-2.79,4.18-4.09a1.13,1.13,0,0,0-.62-.68,2.13,2.13,0,0,0-1.16-.09,3.54,3.54,0,0,0-2,1.19ZM60,27.82c-1.25.31-1.81.88-1.68,1.74a1.21,1.21,0,0,0,.4.77.87.87,0,0,0,.72.23.76.76,0,0,0,.64-.5,1.89,1.89,0,0,0,.1-1Z"/><path d="M66.39,23.08a2.94,2.94,0,0,1,.78-1,2.31,2.31,0,0,1,1.1-.46,2.37,2.37,0,0,1,1.91.54,3,3,0,0,1,1,1.9l1,6.68-3,.45-.89-6.05c-.08-.52-.31-.76-.69-.7a.7.7,0,0,0-.57.52A2.42,2.42,0,0,0,67,26.17l.76,5.21-3,.44-1.37-9.28,2.6-.38Z"/><path d="M73.44,16.39,76.31,16l.48,3.2,1.72-.25.38,2.6-1.57.23L78,26.1c.09.67.41,1,.93.89a1.29,1.29,0,0,0,.74-.41l.42,2.88a5.91,5.91,0,0,1-1.9.63,3.17,3.17,0,0,1-2.48-.44,3.43,3.43,0,0,1-1.12-2.32l-.74-5.06-1.28.19-.38-2.61,1.47-.21Z"/><path d="M19.58,42.74l2.78-.45.17,1-1.62.26.17,1.06,1.5-.24.16,1-1.49.25.33,2-1.16.19Z"/><path d="M24.6,43.5a1.51,1.51,0,0,1,1.23.29,1.81,1.81,0,0,1,.67,1.26,2,2,0,0,1-.21,1.4,1.47,1.47,0,0,1-1.09.7A1.4,1.4,0,0,1,24,46.83a2,2,0,0,1-.62-1.23,2,2,0,0,1,.21-1.4A1.47,1.47,0,0,1,24.6,43.5Zm.16.89a.34.34,0,0,0-.28.29,1.66,1.66,0,0,0,0,.71,1.79,1.79,0,0,0,.22.67.33.33,0,0,0,.36.18.34.34,0,0,0,.28-.28,1.65,1.65,0,0,0,0-.7,1.74,1.74,0,0,0-.22-.69A.34.34,0,0,0,24.76,44.39Z"/><path d="M28.33,42.89a1.54,1.54,0,0,1,1.24.29,1.89,1.89,0,0,1,.67,1.26,2.09,2.09,0,0,1-.22,1.4,1.47,1.47,0,0,1-1.09.7,1.41,1.41,0,0,1-1.24-.32,2.26,2.26,0,0,1-.41-2.63A1.43,1.43,0,0,1,28.33,42.89Zm.16.89c-.14,0-.23.12-.28.29a1.88,1.88,0,0,0,0,.71,1.63,1.63,0,0,0,.22.67.33.33,0,0,0,.63-.1,1.62,1.62,0,0,0,0-.7,2.14,2.14,0,0,0-.22-.69A.36.36,0,0,0,28.49,43.78Z"/><path d="M32.15,40.68l1.14-.18.84,5.11-1,.16L33,45.39a1.31,1.31,0,0,1-.29.42.79.79,0,0,1-.39.19,1,1,0,0,1-.93-.41,2.66,2.66,0,0,1-.4-2.56,1.05,1.05,0,0,1,.81-.7.8.8,0,0,1,.34,0,1.25,1.25,0,0,1,.36.16Zm.44,2.71a.68.68,0,0,0-.18-.13.25.25,0,0,0-.17,0c-.13,0-.22.11-.28.28a1.43,1.43,0,0,0,0,.63,1.28,1.28,0,0,0,.22.58.34.34,0,0,0,.33.18.26.26,0,0,0,.23-.21.83.83,0,0,0,0-.42Z"/><path d="M37.25,41.91A2.76,2.76,0,0,1,36.9,41a1.2,1.2,0,0,1,.2-.87,1.29,1.29,0,0,1,.88-.51,3.1,3.1,0,0,1,.63,0l.15.9a.78.78,0,0,0-.38-.05.4.4,0,0,0-.27.15.39.39,0,0,0-.06.3.86.86,0,0,0,.17.38l.87,1.22a.64.64,0,0,1,0-.15L39,41.92l-.05-.29,1-.16v.09a4.07,4.07,0,0,1,0,1,2.7,2.7,0,0,1-.25,1l.72,1.06-1.16.19-.2-.28a1.32,1.32,0,0,1-1.92.24,1.55,1.55,0,0,1-.59-1A2.07,2.07,0,0,1,37.25,41.91Zm.51.77a1.3,1.3,0,0,0-.09.65.77.77,0,0,0,.25.48.5.5,0,0,0,.44.14.53.53,0,0,0,.21-.09Z"/><path d="M42.28,39l1.45-.24a1.78,1.78,0,0,1,1.14.14,1.73,1.73,0,0,1,.77.79A4.33,4.33,0,0,1,46,41a3.17,3.17,0,0,1-.21,2,1.79,1.79,0,0,1-1.41,1l-1.29.21Zm1.32.8L44.11,43h.09q.9-.15.63-1.83a2.43,2.43,0,0,0-.37-1,.65.65,0,0,0-.7-.29Z"/><path d="M47.74,40.27a1,1,0,0,1,.19-.45.51.51,0,0,1,.33-.19.58.58,0,0,1,.28,0l.19,1.1a.85.85,0,0,0-.34,0,.44.44,0,0,0-.33.24.79.79,0,0,0-.07.49l.3,1.83-1.15.19L46.57,40l1-.16Z"/><path d="M49.41,37.77a.61.61,0,0,1,.45.11.56.56,0,0,1,.27.41.6.6,0,0,1-.11.47.58.58,0,0,1-.4.25.61.61,0,0,1-.47-.11.61.61,0,0,1-.25-.41A.65.65,0,0,1,49,38,.64.64,0,0,1,49.41,37.77Zm-.29,1.8,1.13-.18.58,3.49-1.14.19Z"/><path d="M52.29,39.43a1,1,0,0,1,.29-.39.73.73,0,0,1,.41-.18.85.85,0,0,1,.72.19,1.08,1.08,0,0,1,.4.71l.41,2.52-1.14.18L53,40.19c0-.2-.12-.29-.26-.27a.31.31,0,0,0-.22.2,1,1,0,0,0,0,.47l.32,2-1.12.18-.58-3.49,1-.16Z"/><path d="M54.54,37l1.13-.18.44,2.68.37-1.15,1.06-.17L57,39.28l1.21,2.39-1.2.19-.61-1.27-.11.26.18,1.1-1.13.19Z"/><path d="M58.38,40.33a1.65,1.65,0,0,0,1,.3.49.49,0,0,0,.25-.12.27.27,0,0,0,.08-.24.21.21,0,0,0-.12-.16,1,1,0,0,0-.35-.11,1.52,1.52,0,0,1-.82-.38,1.05,1.05,0,0,1-.26-.5,1,1,0,0,1,.26-.85,1.58,1.58,0,0,1,.91-.45,2.15,2.15,0,0,1,1,.07l.17,1a1.16,1.16,0,0,0-.82-.23.45.45,0,0,0-.24.09.17.17,0,0,0-.05.18c0,.11.15.18.39.22.68.11,1.06.41,1.14.89a1.1,1.1,0,0,1-.26.91,1.47,1.47,0,0,1-1,.52,2.57,2.57,0,0,1-1.17-.12Z"/><path d="M50.92,3.83a6.59,6.59,0,0,0-3.14.49A6.37,6.37,0,0,0,35.9,3.84a5.53,5.53,0,1,0-3.49,9.8,5.38,5.38,0,0,0,1.27-.15l1.56,11.84a.59.59,0,0,0,.91.41,4.79,4.79,0,0,1,2.57-.82,14.5,14.5,0,0,1,2.43.16,3.16,3.16,0,0,0,1.61-.18,17.46,17.46,0,0,1,2.18-.69,6.37,6.37,0,0,1,2-.14A1.42,1.42,0,0,0,48.39,23l1.25-6a5.53,5.53,0,0,0,.71,0,6.6,6.6,0,0,0,.57-13.18Z"/><path class="cls-1" d="M47.52,19.18l-11.59-.9.56,4.21a4.23,4.23,0,0,1,2-.57,13.27,13.27,0,0,1,2.42.17,2.7,2.7,0,0,0,1.61-.2,15.53,15.53,0,0,1,2.18-.78,5.6,5.6,0,0,1,2-.15,1.34,1.34,0,0,0,.6-.11Z"/><path d="M.54,44.9c-.41-.2-.72.38-.42.8a11.37,11.37,0,0,0,1,1.26,10.66,10.66,0,0,0,2.45,2,7,7,0,0,0,5.83.73A7.11,7.11,0,0,0,10.76,49a9.65,9.65,0,0,0,1.16-.9c.71-.65,1.3-1.34,1.85-1.88a2.31,2.31,0,0,1,1.65-.89,2.94,2.94,0,0,1,1.11.27h0c.41.18.72-.4.42-.81a4.42,4.42,0,0,0-1.28-1.19A2.82,2.82,0,0,0,14,43.2a4.24,4.24,0,0,0-1.51.46,22.41,22.41,0,0,0-2.24,1.45,9.63,9.63,0,0,1-1,.61,5.26,5.26,0,0,1-.94.43,7.53,7.53,0,0,1-4.25.09A17.5,17.5,0,0,1,.54,44.9Z"/><path d="M82.45,32.09c.33-.32.81.13.66.62a11,11,0,0,1-.56,1.52,10.37,10.37,0,0,1-1.68,2.65,7,7,0,0,1-5.29,2.55,6.78,6.78,0,0,1-1.5-.2,11.36,11.36,0,0,1-1.39-.49c-.87-.39-1.66-.85-2.35-1.19a2.4,2.4,0,0,0-1.85-.32,3,3,0,0,0-1,.62h0c-.34.3-.81-.15-.66-.63a4.53,4.53,0,0,1,.83-1.54,2.72,2.72,0,0,1,1.46-.9,4,4,0,0,1,1.57,0,21.33,21.33,0,0,1,2.58.67c.39.1.76.2,1.11.26a5.38,5.38,0,0,0,1,.1,7.41,7.41,0,0,0,4-1.27A18.06,18.06,0,0,0,82.45,32.09Z"/></g></g></svg>